# xmcd CD database file
#
# Track frame offsets:
#	150
#	34570
#	55524
#	77350
#	103970
#	113730
#	129035
#	160950
#	172410
#	188625
#	213110
#
# Disc length: 3058 seconds
#
# Revision: 1
# Processed by: cddbd v1.5.2PL0 Copyright (c) Steve Scherf et al.
# Submitted via: CDex 1.51
#
DISCID=830bf00b
DTITLE=Joanna MacGregor and Andy Sheppard - Deep River
DYEAR=2006
DGENRE=Jazz
TTITLE0=Sometimes I feel like a Motherless Child
TTITLE1=Everybody Help the Boys Come Home
TTITLE2=Spiritual
TTITLE3=Georgia Lee
TTITLE4=Everybody Help the Boys Come Home
TTITLE5=Up Above My Head
TTITLE6=Deep River
TTITLE7=Up Above My Head
TTITLE8=Ring Them Bells
TTITLE9=The Mercy Seat
TTITLE10=Picture in a Frame
EXTD=YEAR: 2006
EXTT0=
EXTT1=
EXTT2=
EXTT3=
EXTT4=
EXTT5=
EXTT6=
EXTT7=
EXTT8=
EXTT9=
EXTT10=
PLAYORDER=
